<?xml version="1.0" standalone="no"?>
<!DOCTYPE svg PUBLIC "-//W3C//DTD SVG 20010904//EN"
 "http://www.w3.org/TR/2001/REC-SVG-20010904/DTD/svg10.dtd">
<svg version="1.0" xmlns="http://www.w3.org/2000/svg"
 width="1121.000000pt" height="233.000000pt" viewBox="0 0 1121.000000 233.000000"
 preserveAspectRatio="xMidYMid meet">

<g transform="translate(0.000000,233.000000) scale(0.100000,-0.100000)"
fill="#000000" stroke="none">
<path d="M1162 1997 c-6 -7 -14 -32 -18 -55 l-7 -42 -94 0 c-119 0 -124 -5
-182 -160 l-43 -116 -62 4 c-57 4 -65 2 -80 -19 -37 -53 -6 -119 57 -119 l32
0 -3 -164 c-3 -141 -1 -168 13 -190 l17 -26 574 0 573 0 16 31 c13 25 16 59
13 190 l-3 159 26 0 c35 0 59 29 59 72 0 47 -24 66 -89 70 l-53 3 -44 110
c-59 148 -68 155 -193 155 l-98 0 -7 49 c-4 31 -12 51 -22 55 -9 3 -96 6 -194
6 -133 0 -180 -3 -188 -13z m98 -36 c0 -24 -34 -22 -38 2 -2 12 3 17 17 17 14
0 21 -6 21 -19z m90 6 c0 -19 -10 -27 -26 -20 -21 8 -17 33 6 33 11 0 20 -6
20 -13z m98 -4 c-2 -10 -12 -18 -23 -18 -11 0 -21 8 -23 18 -3 13 3 17 23 17
20 0 26 -4 23 -17z m92 -3 c0 -13 -7 -20 -20 -20 -13 0 -20 7 -20 20 0 13 7
20 20 20 13 0 20 -7 20 -20z m-325 -40 c0 -8 -10 -16 -22 -18 -18 -3 -23 2
-23 18 0 16 5 21 23 18 12 -2 22 -10 22 -18z m95 0 c0 -21 -33 -29 -45 -10 -9
15 4 30 26 30 12 0 19 -7 19 -20z m90 0 c0 -13 -7 -20 -20 -20 -13 0 -20 7
-20 20 0 13 7 20 20 20 13 0 20 -7 20 -20z m90 0 c0 -13 -7 -20 -20 -20 -13 0
-20 7 -20 20 0 13 7 20 20 20 13 0 20 -7 20 -20z m258 -97 c26 -22 98 -211 85
-224 -5 -5 -203 -8 -474 -7 l-464 3 2 30 c2 52 63 196 87 205 11 5 184 9 382
9 331 1 364 -1 382 -16z m-729 -389 c48 -40 42 -102 -11 -130 -98 -51 -170 91
-73 144 31 17 51 14 84 -14z m790 0 c66 -55 15 -157 -70 -139 -70 16 -82 128
-16 155 36 15 54 11 86 -16z"/>
<path d="M807 1084 c-4 -4 -7 -27 -7 -51 0 -70 21 -83 133 -83 113 0 130 12
131 88 l1 47 -126 3 c-69 1 -128 -1 -132 -4z"/>
<path d="M1664 1081 c-12 -13 -2 -81 17 -105 19 -25 25 -26 114 -26 90 0 94 1
115 27 15 19 20 38 18 66 l-3 39 -128 1 c-71 1 -131 0 -133 -2z"/>
</g>
</svg>
